<svg width="113" height="30" viewBox="0 0 113 30" fill="none" xmlns="http://www.w3.org/2000/svg">
<path d="M41.9701 16.8076H37.7757C36.3431 16.8076 35.2802 16.5338 34.5869 15.9862C33.8935 15.4387 33.5469 14.5954 33.5469 13.4564V8.34759C33.5469 7.20864 33.8935 6.36265 34.5869 5.8096C35.2802 5.25655 36.3431 4.98003 37.7757 4.98003H41.9701C42.1878 4.98003 42.3454 5.02657 42.4428 5.11966C42.5402 5.21274 42.5889 5.36333 42.5889 5.5714V7.55909C42.5889 7.76717 42.5402 7.91775 42.4428 8.01084C42.3454 8.10392 42.1878 8.15047 41.9701 8.15047H38.5148C38.1596 8.15047 37.896 8.21891 37.7241 8.35581C37.5522 8.4927 37.4662 8.69804 37.4662 8.97183V12.8815C37.4662 13.1553 37.5522 13.3551 37.7241 13.4811C37.896 13.607 38.1596 13.67 38.5148 13.67H41.9701C42.1878 13.67 42.3454 13.7165 42.4428 13.8096C42.5402 13.9027 42.5889 14.0533 42.5889 14.2614V16.2162C42.5889 16.4243 42.5402 16.5749 42.4428 16.6679C42.3454 16.761 42.1878 16.8076 41.9701 16.8076ZM47.8147 16.8076H45.1503C44.9325 16.8076 44.7749 16.761 44.6775 16.6679C44.5801 16.5749 44.5314 16.4243 44.5314 16.2162V5.5714C44.5314 5.36333 44.5801 5.21274 44.6775 5.11966C44.7749 5.02657 44.9325 4.98003 45.1503 4.98003H47.8147C48.0325 4.98003 48.1901 5.02657 48.2875 5.11966C48.3849 5.21274 48.4336 5.36333 48.4336 5.5714V9.1361H51.3044V5.5714C51.3044 5.36333 51.3531 5.21274 51.4505 5.11966C51.5479 5.02657 51.7055 4.98003 51.9232 4.98003H54.5877C54.8054 4.98003 54.963 5.02657 55.0604 5.11966C55.1578 5.21274 55.2065 5.36333 55.2065 5.5714V16.2162C55.2065 16.4243 55.1578 16.5749 55.0604 16.6679C54.963 16.761 54.8054 16.8076 54.5877 16.8076H51.9232C51.7055 16.8076 51.5479 16.761 51.4505 16.6679C51.3531 16.5749 51.3044 16.4243 51.3044 16.2162V12.5694H48.4336V16.2162C48.4336 16.4243 48.3849 16.5749 48.2875 16.6679C48.1901 16.761 48.0325 16.8076 47.8147 16.8076ZM62.0654 8.42973L61.2575 10.9267H63.9563L63.1484 8.42973C63.1026 8.33117 63.0539 8.25998 63.0023 8.21618C62.9507 8.17237 62.8906 8.15047 62.8218 8.15047H62.392C62.3233 8.15047 62.2631 8.17237 62.2115 8.21618C62.16 8.25998 62.1113 8.33117 62.0654 8.42973ZM61.0856 13.9164V16.2162C61.0856 16.4243 61.0369 16.5749 60.9395 16.6679C60.8421 16.761 60.6845 16.8076 60.4667 16.8076H57.9398C57.722 16.8076 57.5645 16.761 57.467 16.6679C57.3696 16.5749 57.3209 16.4243 57.3209 16.2162V11.8794C57.3209 11.5509 57.3754 11.1731 57.4842 10.746C57.5931 10.3189 57.7621 9.82056 57.9913 9.25109L59.4869 5.52212C59.5557 5.33595 59.6617 5.19906 59.8049 5.11144C59.9482 5.02383 60.1344 4.98003 60.3636 4.98003H64.9878C65.2055 4.98003 65.386 5.02383 65.5293 5.11144C65.6725 5.19906 65.7785 5.33595 65.8473 5.52212L67.3428 9.25109C67.572 9.82056 67.7411 10.3189 67.8499 10.746C67.9588 11.1731 68.0132 11.5509 68.0132 11.8794V16.2162C68.0132 16.4243 67.9645 16.5749 67.8671 16.6679C67.7697 16.761 67.6121 16.8076 67.3944 16.8076H64.7987C64.5695 16.8076 64.4004 16.761 64.2916 16.6679C64.1827 16.5749 64.1282 16.4243 64.1282 16.2162V13.9164H61.0856ZM75.2847 16.8076H72.4999C72.2821 16.8076 72.1246 16.761 72.0271 16.6679C71.9297 16.5749 71.881 16.4243 71.881 16.2162V8.15047H69.3541C69.1363 8.15047 68.9788 8.10392 68.8813 8.01084C68.7839 7.91775 68.7352 7.76717 68.7352 7.55909V5.5714C68.7352 5.36333 68.7839 5.21274 68.8813 5.11966C68.9788 5.02657 69.1363 4.98003 69.3541 4.98003H78.4305C78.6482 4.98003 78.8058 5.02657 78.9032 5.11966C79.0006 5.21274 79.0493 5.36333 79.0493 5.5714V7.55909C79.0493 7.76717 79.0006 7.91775 78.9032 8.01084C78.8058 8.10392 78.6482 8.15047 78.4305 8.15047H75.9035V16.2162C75.9035 16.4243 75.8548 16.5749 75.7574 16.6679C75.66 16.761 75.5024 16.8076 75.2847 16.8076ZM86.5615 16.8076H83.7767C83.5589 16.8076 83.4013 16.761 83.3039 16.6679C83.2065 16.5749 83.1578 16.4243 83.1578 16.2162V8.15047H80.6308C80.4131 8.15047 80.2555 8.10392 80.1581 8.01084C80.0607 7.91775 80.012 7.76717 80.012 7.55909V5.5714C80.012 5.36333 80.0607 5.21274 80.1581 5.11966C80.2555 5.02657 80.4131 4.98003 80.6308 4.98003H89.7073C89.925 4.98003 90.0826 5.02657 90.18 5.11966C90.2774 5.21274 90.3261 5.36333 90.3261 5.5714V7.55909C90.3261 7.76717 90.2774 7.91775 90.18 8.01084C90.0826 8.10392 89.925 8.15047 89.7073 8.15047H87.1803V16.2162C87.1803 16.4243 87.1316 16.5749 87.0342 16.6679C86.9368 16.761 86.7792 16.8076 86.5615 16.8076ZM99.6604 16.8076H92.3374C92.1196 16.8076 91.9621 16.761 91.8646 16.6679C91.7672 16.5749 91.7185 16.4243 91.7185 16.2162V14.2614C91.7185 14.0533 91.7672 13.9027 91.8646 13.8096C91.9621 13.7165 92.1196 13.67 92.3374 13.67H94.0392V8.15047H92.3374C92.1196 8.15047 91.9621 8.10392 91.8646 8.01084C91.7672 7.91775 91.7185 7.76717 91.7185 7.55909V5.5714C91.7185 5.36333 91.7672 5.21274 91.8646 5.11966C91.9621 5.02657 92.1196 4.98003 92.3374 4.98003H99.6604C99.8781 4.98003 100.036 5.02657 100.133 5.11966C100.231 5.21274 100.279 5.36333 100.279 5.5714V7.55909C100.279 7.76717 100.231 7.91775 100.133 8.01084C100.036 8.10392 99.8781 8.15047 99.6604 8.15047H97.993V13.67H99.6604C99.8781 13.67 100.036 13.7165 100.133 13.8096C100.231 13.9027 100.279 14.0533 100.279 14.2614V16.2162C100.279 16.4243 100.231 16.5749 100.133 16.6679C100.036 16.761 99.8781 16.8076 99.6604 16.8076ZM105.677 16.8076H103.012C102.795 16.8076 102.637 16.761 102.54 16.6679C102.442 16.5749 102.394 16.4243 102.394 16.2162V5.5714C102.394 5.36333 102.442 5.21274 102.54 5.11966C102.637 5.02657 102.795 4.98003 103.012 4.98003H105.677C105.895 4.98003 106.052 5.02657 106.15 5.11966C106.247 5.21274 106.296 5.36333 106.296 5.5714V9.34965H106.983L108.754 5.52212C108.834 5.325 108.943 5.18537 109.081 5.10323C109.218 5.02109 109.396 4.98003 109.614 4.98003H112.261C112.456 4.98003 112.587 5.02657 112.656 5.11966C112.725 5.21274 112.719 5.3469 112.639 5.52212L110.886 9.34965C111.527 9.3825 112.04 9.5988 112.424 9.99852C112.808 10.3983 113 10.9267 113 11.5837V16.2162C113 16.4243 112.951 16.5749 112.854 16.6679C112.756 16.761 112.599 16.8076 112.381 16.8076H109.734C109.516 16.8076 109.359 16.761 109.261 16.6679C109.164 16.5749 109.115 16.4243 109.115 16.2162V13.0129C109.115 12.8377 109.069 12.7008 108.977 12.6022C108.886 12.5037 108.748 12.4544 108.565 12.4544H106.296V16.2162C106.296 16.4243 106.247 16.5749 106.15 16.6679C106.052 16.761 105.895 16.8076 105.677 16.8076Z" fill="#3A3A3A"/>
<path d="M25.9468 0.00096986C20.8551 0.0538782 17.1007 0.00096986 12.0091 0.00096986C10.8262 0.00096986 9.74612 0.424237 8.8718 1.11205C7.68889 2.01149 6.91743 3.49292 6.866 5.13308C6.81457 7.09069 6.76314 9.0483 7.5346 10.953C7.89461 11.7995 8.35749 12.6461 8.8718 13.3339C10.0547 14.9211 11.7519 16.138 13.6549 16.72C15.8149 17.3549 16.895 17.0904 19.1065 17.0904H25.8954C26.0496 17.0904 26.2554 17.1962 26.4097 17.302L26.5125 17.4078C27.5926 18.5189 29.5469 20.5294 30.5755 21.5347C30.7813 21.7463 31.1927 21.5876 31.1927 21.2701V5.2389C31.0899 2.0644 28.5183 -0.0519385 25.9468 0.00096986V0.00096986ZM29.1869 17.4078L27.7983 15.9793L27.6954 15.8735C27.2325 15.3973 26.5125 15.0798 25.8439 15.0798H19.0551C18.4379 15.0798 17.9236 15.0798 17.4607 15.1328C16.2264 15.1857 15.4549 15.1857 14.1692 14.8153C12.7291 14.392 11.3919 13.3868 10.3633 12.117C9.90041 11.535 9.5404 10.9001 9.28324 10.2123C8.66607 8.67794 8.71751 6.98487 8.76894 5.2389C8.82037 4.23364 9.28324 3.3342 10.0547 2.7522C10.6204 2.32894 11.3405 2.0644 12.0605 2.0644H16.5864C19.6208 2.0644 22.5009 2.0644 25.9982 2.01149H26.0496C26.8725 2.01149 27.6954 2.38185 28.3126 2.96384C28.724 3.3871 29.2383 4.12782 29.2383 5.2389V17.4078H29.1869Z" fill="#2D3E50"/>
<path d="M21.8838 19.048V26.7726L19.5179 24.3388L19.4151 24.233C19.1065 23.9155 18.6436 23.7039 18.2322 23.7039H12.1119C11.5976 23.7039 11.1347 23.7039 10.7233 23.7568C9.59182 23.8097 8.82036 23.8097 7.53459 23.4394C6.14597 23.0161 4.75734 22.0637 3.78015 20.7939C3.31728 20.2119 2.95726 19.577 2.70011 18.8892C2.08294 17.4078 2.13437 15.7147 2.1858 14.1275C2.23723 13.0164 2.75154 12.0112 3.57443 11.3763C4.08874 10.953 4.70591 10.7414 5.37451 10.6355C5.16878 9.89482 5.06592 9.1541 4.96306 8.46629C3.98588 8.62502 3.06012 8.99538 2.28866 9.63028C0.900037 10.6884 0.077146 12.3286 0.0257153 14.0746C-0.0257153 15.8206 -0.0771461 17.8311 0.694314 19.7358C1.05433 20.5823 1.5172 21.4288 2.08294 22.1696C3.31728 23.8097 5.06592 25.0266 6.91743 25.5557C8.51178 26.0319 9.54039 25.979 10.7747 25.9261C11.1862 25.9261 11.5976 25.8731 12.1119 25.8731H18.0265C18.695 26.561 19.7751 27.6191 20.598 28.5186L21.6266 29.5767C21.8838 29.8413 22.2438 30 22.6038 30C22.8095 30 22.9638 29.9471 23.1181 29.8942C23.6324 29.6825 23.9924 29.1535 23.9924 28.5715V18.9951C23.2724 19.048 22.6038 19.048 21.8838 19.048V19.048Z" fill="#2E79BE"/>
<path d="M12.3177 8.46631C12.3177 8.78905 12.4423 9.09857 12.6641 9.32679C12.886 9.555 13.1868 9.6832 13.5006 9.6832C13.8143 9.6832 14.1152 9.555 14.337 9.32679C14.5588 9.09857 14.6835 8.78905 14.6835 8.46631C14.6835 8.14357 14.5588 7.83405 14.337 7.60584C14.1152 7.37763 13.8143 7.24942 13.5006 7.24942C13.1868 7.24942 12.886 7.37763 12.6641 7.60584C12.4423 7.83405 12.3177 8.14357 12.3177 8.46631" fill="#2E79BE"/>
<path d="M17.8207 8.46631C17.8207 8.78905 17.9454 9.09857 18.1672 9.32679C18.389 9.555 18.6899 9.6832 19.0036 9.6832C19.3174 9.6832 19.6182 9.555 19.8401 9.32679C20.0619 9.09857 20.1865 8.78905 20.1865 8.46631C20.1865 8.14357 20.0619 7.83405 19.8401 7.60584C19.6182 7.37763 19.3174 7.24942 19.0036 7.24942C18.6899 7.24942 18.389 7.37763 18.1672 7.60584C17.9454 7.83405 17.8207 8.14357 17.8207 8.46631" fill="#2E79BE"/>
<path d="M23.3238 8.46631C23.3238 8.78905 23.4484 9.09857 23.6703 9.32679C23.8921 9.555 24.193 9.6832 24.5067 9.6832C24.8204 9.6832 25.1213 9.555 25.3431 9.32679C25.565 9.09857 25.6896 8.78905 25.6896 8.46631C25.6896 8.14357 25.565 7.83405 25.3431 7.60584C25.1213 7.37763 24.8204 7.24942 24.5067 7.24942C24.193 7.24942 23.8921 7.37763 23.6703 7.60584C23.4484 7.83405 23.3238 8.14357 23.3238 8.46631" fill="#2E79BE"/>
</svg>
